# xmcd
#
# Track frame offsets:
#	150
#	21406
#	41281
#	60001
#	75404
#
# Disc length: 1331 seconds
#
# Revision: 1
# Processed by: cddbd v1.5PL3 Copyright (c) Steve Scherf et al.
# Submitted via: EasyCDDAExtractor 7.0.5.4
#
DISCID=29053105
DTITLE=Frank the Cat - 2004 Promo
DYEAR=2004
DGENRE=Soul
TTITLE0=Back To My Roots
TTITLE1=Brickhouse
TTITLE2=Lady Marmalade
TTITLE3=Car Wash
TTITLE4=Papa was a Rolling Stone (Video remix)
EXTD=
EXTT0=
EXTT1=
EXTT2=
EXTT3=
EXTT4=
PLAYORDER=
